<mxfile host="app.diagrams.net" modified="2024-03-19T03:55:21.388Z" agent="Mozilla/5.0 (Windows NT 10.0; Win64; x64) AppleWebKit/537.36 (KHTML, like Gecko) Chrome/122.0.0.0 Safari/537.36 Edg/122.0.0.0" etag="bv7Ha5BASe6hWTKBv2_p" version="24.0.7" type="device">
  <diagram name="Page-1" id="a2ElgBXmISjke0oVlRJy">
    <mxGraphModel dx="786" dy="505" grid="1" gridSize="10" guides="1" tooltips="1" connect="1" arrows="1" fold="1" page="1" pageScale="1" pageWidth="850" pageHeight="1100" math="0" shadow="0">
      <root>
        <mxCell id="0" />
        <mxCell id="1" parent="0" />
        <mxCell id="_11YucGj-gpKnew8G1n7-1" value="Process Business Approve Laporan Temuan Patrol" style="swimlane;html=1;childLayout=stackLayout;resizeParent=1;resizeParentMax=0;startSize=20;horizontal=0;horizontalStack=1;whiteSpace=wrap;" parent="1" vertex="1">
          <mxGeometry x="80" y="40" width="580" height="900" as="geometry">
            <mxRectangle x="210" y="20" width="40" height="190" as="alternateBounds" />
          </mxGeometry>
        </mxCell>
        <mxCell id="_11YucGj-gpKnew8G1n7-2" value="Dept Head PIC" style="swimlane;html=1;startSize=20;" parent="_11YucGj-gpKnew8G1n7-1" vertex="1">
          <mxGeometry x="20" width="560" height="900" as="geometry">
            <mxRectangle x="20" width="40" height="480" as="alternateBounds" />
          </mxGeometry>
        </mxCell>
        <mxCell id="_11YucGj-gpKnew8G1n7-3" style="edgeStyle=orthogonalEdgeStyle;rounded=0;orthogonalLoop=1;jettySize=auto;html=1;" parent="_11YucGj-gpKnew8G1n7-2" source="_11YucGj-gpKnew8G1n7-4" target="_11YucGj-gpKnew8G1n7-6" edge="1">
          <mxGeometry relative="1" as="geometry" />
        </mxCell>
        <mxCell id="_11YucGj-gpKnew8G1n7-4" value="Login" style="points=[[0.25,0,0],[0.5,0,0],[0.75,0,0],[1,0.25,0],[1,0.5,0],[1,0.75,0],[0.75,1,0],[0.5,1,0],[0.25,1,0],[0,0.75,0],[0,0.5,0],[0,0.25,0]];shape=mxgraph.bpmn.task;whiteSpace=wrap;rectStyle=rounded;size=10;html=1;container=1;expand=0;collapsible=0;taskMarker=abstract;" parent="_11YucGj-gpKnew8G1n7-2" vertex="1">
          <mxGeometry x="218.75" y="90" width="85" height="30" as="geometry" />
        </mxCell>
        <mxCell id="_11YucGj-gpKnew8G1n7-5" style="edgeStyle=orthogonalEdgeStyle;rounded=0;orthogonalLoop=1;jettySize=auto;html=1;" parent="_11YucGj-gpKnew8G1n7-2" source="_11YucGj-gpKnew8G1n7-6" target="_11YucGj-gpKnew8G1n7-8" edge="1">
          <mxGeometry relative="1" as="geometry" />
        </mxCell>
        <mxCell id="_11YucGj-gpKnew8G1n7-6" value="Membuka halaman Laporan Patrol" style="points=[[0.25,0,0],[0.5,0,0],[0.75,0,0],[1,0.25,0],[1,0.5,0],[1,0.75,0],[0.75,1,0],[0.5,1,0],[0.25,1,0],[0,0.75,0],[0,0.5,0],[0,0.25,0]];shape=mxgraph.bpmn.task;whiteSpace=wrap;rectStyle=rounded;size=10;html=1;container=1;expand=0;collapsible=0;taskMarker=abstract;" parent="_11YucGj-gpKnew8G1n7-2" vertex="1">
          <mxGeometry x="203.75" y="140" width="115" height="60" as="geometry" />
        </mxCell>
        <mxCell id="_11YucGj-gpKnew8G1n7-7" style="edgeStyle=orthogonalEdgeStyle;rounded=0;orthogonalLoop=1;jettySize=auto;html=1;" parent="_11YucGj-gpKnew8G1n7-2" source="_11YucGj-gpKnew8G1n7-8" target="_11YucGj-gpKnew8G1n7-12" edge="1">
          <mxGeometry relative="1" as="geometry" />
        </mxCell>
        <mxCell id="_11YucGj-gpKnew8G1n7-8" value="Menekan tombol see detail pada jadwal laporan patrol" style="points=[[0.25,0,0],[0.5,0,0],[0.75,0,0],[1,0.25,0],[1,0.5,0],[1,0.75,0],[0.75,1,0],[0.5,1,0],[0.25,1,0],[0,0.75,0],[0,0.5,0],[0,0.25,0]];shape=mxgraph.bpmn.task;whiteSpace=wrap;rectStyle=rounded;size=10;html=1;container=1;expand=0;collapsible=0;taskMarker=abstract;" parent="_11YucGj-gpKnew8G1n7-2" vertex="1">
          <mxGeometry x="200" y="230" width="122.5" height="60" as="geometry" />
        </mxCell>
        <mxCell id="_11YucGj-gpKnew8G1n7-9" style="edgeStyle=orthogonalEdgeStyle;rounded=0;orthogonalLoop=1;jettySize=auto;html=1;" parent="_11YucGj-gpKnew8G1n7-2" source="_11YucGj-gpKnew8G1n7-10" target="_11YucGj-gpKnew8G1n7-4" edge="1">
          <mxGeometry relative="1" as="geometry" />
        </mxCell>
        <mxCell id="_11YucGj-gpKnew8G1n7-10" value="" style="points=[[0.145,0.145,0],[0.5,0,0],[0.855,0.145,0],[1,0.5,0],[0.855,0.855,0],[0.5,1,0],[0.145,0.855,0],[0,0.5,0]];shape=mxgraph.bpmn.event;html=1;verticalLabelPosition=bottom;labelBackgroundColor=#ffffff;verticalAlign=top;align=center;perimeter=ellipsePerimeter;outlineConnect=0;aspect=fixed;outline=standard;symbol=general;fillColor=#00FF00;strokeColor=#2D7600;fontColor=#ffffff;" parent="_11YucGj-gpKnew8G1n7-2" vertex="1">
          <mxGeometry x="246.25" y="40" width="30" height="30" as="geometry" />
        </mxCell>
        <mxCell id="_11YucGj-gpKnew8G1n7-12" value="Menekan tombol see detail pada laporan temuan" style="points=[[0.25,0,0],[0.5,0,0],[0.75,0,0],[1,0.25,0],[1,0.5,0],[1,0.75,0],[0.75,1,0],[0.5,1,0],[0.25,1,0],[0,0.75,0],[0,0.5,0],[0,0.25,0]];shape=mxgraph.bpmn.task;whiteSpace=wrap;rectStyle=rounded;size=10;html=1;container=1;expand=0;collapsible=0;taskMarker=abstract;" parent="_11YucGj-gpKnew8G1n7-2" vertex="1">
          <mxGeometry x="201.25" y="320" width="120" height="60" as="geometry" />
        </mxCell>
        <mxCell id="_11YucGj-gpKnew8G1n7-16" style="edgeStyle=orthogonalEdgeStyle;rounded=0;orthogonalLoop=1;jettySize=auto;html=1;" parent="_11YucGj-gpKnew8G1n7-2" source="_11YucGj-gpKnew8G1n7-17" target="_11YucGj-gpKnew8G1n7-12" edge="1">
          <mxGeometry relative="1" as="geometry" />
        </mxCell>
        <mxCell id="_11YucGj-gpKnew8G1n7-17" value="Temuan harus memiliki indikator proses ceklis berwarna kuning" style="points=[[0.25,0,0],[0.5,0,0],[0.75,0,0],[1,0.25,0],[1,0.5,0],[1,0.75,0],[0.75,1,0],[0.5,1,0],[0.25,1,0],[0,0.75,0],[0,0.5,0],[0,0.25,0]];rounded=1;dashed=1;dashPattern=5 2 1 2;labelPosition=center;verticalLabelPosition=middle;align=center;verticalAlign=middle;fontSize=12;html=1;whiteSpace=wrap;" parent="_11YucGj-gpKnew8G1n7-2" vertex="1">
          <mxGeometry x="351.25" y="320" width="148.75" height="60" as="geometry" />
        </mxCell>
        <mxCell id="_11YucGj-gpKnew8G1n7-18" value="" style="points=[[0.145,0.145,0],[0.5,0,0],[0.855,0.145,0],[1,0.5,0],[0.855,0.855,0],[0.5,1,0],[0.145,0.855,0],[0,0.5,0]];shape=mxgraph.bpmn.event;html=1;verticalLabelPosition=bottom;labelBackgroundColor=#ffffff;verticalAlign=top;align=center;perimeter=ellipsePerimeter;outlineConnect=0;aspect=fixed;outline=end;symbol=terminate;fillColor=#f8cecc;strokeColor=#b85450;gradientColor=#ea6b66;" parent="_11YucGj-gpKnew8G1n7-2" vertex="1">
          <mxGeometry x="244.69" y="840" width="30" height="30" as="geometry" />
        </mxCell>
        <mxCell id="_11YucGj-gpKnew8G1n7-19" style="edgeStyle=orthogonalEdgeStyle;rounded=0;orthogonalLoop=1;jettySize=auto;html=1;" parent="_11YucGj-gpKnew8G1n7-2" source="_11YucGj-gpKnew8G1n7-30" target="_11YucGj-gpKnew8G1n7-18" edge="1">
          <mxGeometry relative="1" as="geometry">
            <mxPoint x="259.69" y="519.9999999999998" as="targetPoint" />
            <Array as="points">
              <mxPoint x="108.44" y="770" />
              <mxPoint x="259.44" y="770" />
            </Array>
          </mxGeometry>
        </mxCell>
        <mxCell id="_11YucGj-gpKnew8G1n7-20" style="edgeStyle=orthogonalEdgeStyle;rounded=0;orthogonalLoop=1;jettySize=auto;html=1;" parent="_11YucGj-gpKnew8G1n7-2" source="_11YucGj-gpKnew8G1n7-21" target="_11YucGj-gpKnew8G1n7-23" edge="1">
          <mxGeometry relative="1" as="geometry" />
        </mxCell>
        <mxCell id="_11YucGj-gpKnew8G1n7-21" value="Menekan tombol Tolak" style="points=[[0.25,0,0],[0.5,0,0],[0.75,0,0],[1,0.25,0],[1,0.5,0],[1,0.75,0],[0.75,1,0],[0.5,1,0],[0.25,1,0],[0,0.75,0],[0,0.5,0],[0,0.25,0]];shape=mxgraph.bpmn.task;whiteSpace=wrap;rectStyle=rounded;size=10;html=1;container=1;expand=0;collapsible=0;taskMarker=abstract;" parent="_11YucGj-gpKnew8G1n7-2" vertex="1">
          <mxGeometry x="364.0599999999999" y="500" width="120" height="60" as="geometry" />
        </mxCell>
        <mxCell id="_11YucGj-gpKnew8G1n7-22" style="edgeStyle=orthogonalEdgeStyle;rounded=0;orthogonalLoop=1;jettySize=auto;html=1;" parent="_11YucGj-gpKnew8G1n7-2" source="_11YucGj-gpKnew8G1n7-23" target="_11YucGj-gpKnew8G1n7-24" edge="1">
          <mxGeometry relative="1" as="geometry" />
        </mxCell>
        <mxCell id="_11YucGj-gpKnew8G1n7-23" value="Mengisi form penolakan" style="points=[[0.25,0,0],[0.5,0,0],[0.75,0,0],[1,0.25,0],[1,0.5,0],[1,0.75,0],[0.75,1,0],[0.5,1,0],[0.25,1,0],[0,0.75,0],[0,0.5,0],[0,0.25,0]];shape=mxgraph.bpmn.task;whiteSpace=wrap;rectStyle=rounded;size=10;html=1;container=1;expand=0;collapsible=0;taskMarker=abstract;" parent="_11YucGj-gpKnew8G1n7-2" vertex="1">
          <mxGeometry x="364.0599999999999" y="590" width="120" height="60" as="geometry" />
        </mxCell>
        <mxCell id="_11YucGj-gpKnew8G1n7-24" value="Menekan tombol submit" style="points=[[0.25,0,0],[0.5,0,0],[0.75,0,0],[1,0.25,0],[1,0.5,0],[1,0.75,0],[0.75,1,0],[0.5,1,0],[0.25,1,0],[0,0.75,0],[0,0.5,0],[0,0.25,0]];shape=mxgraph.bpmn.task;whiteSpace=wrap;rectStyle=rounded;size=10;html=1;container=1;expand=0;collapsible=0;taskMarker=abstract;" parent="_11YucGj-gpKnew8G1n7-2" vertex="1">
          <mxGeometry x="364.0599999999999" y="690" width="120" height="60" as="geometry" />
        </mxCell>
        <mxCell id="_11YucGj-gpKnew8G1n7-25" style="edgeStyle=orthogonalEdgeStyle;rounded=0;orthogonalLoop=1;jettySize=auto;html=1;entryX=0.5;entryY=0;entryDx=0;entryDy=0;entryPerimeter=0;" parent="_11YucGj-gpKnew8G1n7-2" source="_11YucGj-gpKnew8G1n7-24" target="_11YucGj-gpKnew8G1n7-18" edge="1">
          <mxGeometry relative="1" as="geometry">
            <Array as="points">
              <mxPoint x="424.44" y="770" />
              <mxPoint x="259.44" y="770" />
            </Array>
          </mxGeometry>
        </mxCell>
        <mxCell id="_11YucGj-gpKnew8G1n7-26" value="Approve Laporan?" style="points=[[0.25,0.25,0],[0.5,0,0],[0.75,0.25,0],[1,0.5,0],[0.75,0.75,0],[0.5,1,0],[0.25,0.75,0],[0,0.5,0]];shape=mxgraph.bpmn.gateway2;html=1;verticalLabelPosition=bottom;labelBackgroundColor=#ffffff;verticalAlign=top;align=center;perimeter=rhombusPerimeter;outlineConnect=0;outline=none;symbol=none;gwType=exclusive;" parent="_11YucGj-gpKnew8G1n7-2" vertex="1">
          <mxGeometry x="237.82" y="420" width="43.75" height="40" as="geometry" />
        </mxCell>
        <mxCell id="_11YucGj-gpKnew8G1n7-27" style="edgeStyle=orthogonalEdgeStyle;rounded=0;orthogonalLoop=1;jettySize=auto;html=1;entryX=0.5;entryY=0;entryDx=0;entryDy=0;entryPerimeter=0;" parent="_11YucGj-gpKnew8G1n7-2" target="_11YucGj-gpKnew8G1n7-26" edge="1">
          <mxGeometry relative="1" as="geometry">
            <mxPoint x="259.44" y="380" as="sourcePoint" />
          </mxGeometry>
        </mxCell>
        <mxCell id="_11YucGj-gpKnew8G1n7-28" style="edgeStyle=orthogonalEdgeStyle;rounded=0;orthogonalLoop=1;jettySize=auto;html=1;entryX=0.5;entryY=0;entryDx=0;entryDy=0;entryPerimeter=0;" parent="_11YucGj-gpKnew8G1n7-2" source="_11YucGj-gpKnew8G1n7-26" target="_11YucGj-gpKnew8G1n7-21" edge="1">
          <mxGeometry relative="1" as="geometry" />
        </mxCell>
        <mxCell id="_11YucGj-gpKnew8G1n7-29" style="edgeStyle=orthogonalEdgeStyle;rounded=0;orthogonalLoop=1;jettySize=auto;html=1;entryX=0.5;entryY=0;entryDx=0;entryDy=0;entryPerimeter=0;" parent="_11YucGj-gpKnew8G1n7-2" source="_11YucGj-gpKnew8G1n7-26" target="_11YucGj-gpKnew8G1n7-30" edge="1">
          <mxGeometry relative="1" as="geometry" />
        </mxCell>
        <mxCell id="_11YucGj-gpKnew8G1n7-30" value="Menekan tombol Verifikasi" style="points=[[0.25,0,0],[0.5,0,0],[0.75,0,0],[1,0.25,0],[1,0.5,0],[1,0.75,0],[0.75,1,0],[0.5,1,0],[0.25,1,0],[0,0.75,0],[0,0.5,0],[0,0.25,0]];shape=mxgraph.bpmn.task;whiteSpace=wrap;rectStyle=rounded;size=10;html=1;container=1;expand=0;collapsible=0;taskMarker=abstract;" parent="_11YucGj-gpKnew8G1n7-2" vertex="1">
          <mxGeometry x="43.44" y="570" width="120" height="60" as="geometry" />
        </mxCell>
        <mxCell id="_11YucGj-gpKnew8G1n7-31" value="Approve" style="text;html=1;align=center;verticalAlign=middle;resizable=0;points=[];autosize=1;strokeColor=none;fillColor=none;" parent="_11YucGj-gpKnew8G1n7-2" vertex="1">
          <mxGeometry x="38.44" y="490" width="70" height="30" as="geometry" />
        </mxCell>
        <mxCell id="_11YucGj-gpKnew8G1n7-32" value="Tolak" style="text;html=1;align=center;verticalAlign=middle;resizable=0;points=[];autosize=1;strokeColor=none;fillColor=none;" parent="_11YucGj-gpKnew8G1n7-2" vertex="1">
          <mxGeometry x="417.44" y="451" width="50" height="30" as="geometry" />
        </mxCell>
      </root>
    </mxGraphModel>
  </diagram>
</mxfile>
